<mxfile host="65bd71144e">
    <diagram id="PD3LTiTy4cdeC6ZFiB52" name="ページ1">
        <mxGraphModel dx="874" dy="664" grid="1" gridSize="10" guides="1" tooltips="1" connect="1" arrows="1" fold="1" page="1" pageScale="1" pageWidth="827" pageHeight="1169" math="0" shadow="0">
            <root>
                <mxCell id="0"/>
                <mxCell id="1" parent="0"/>
                <mxCell id="2" value="" style="rounded=0;whiteSpace=wrap;html=1;fillColor=#f5f5f5;fontColor=#333333;strokeColor=#666666;" vertex="1" parent="1">
                    <mxGeometry x="80" y="40" width="240" height="520" as="geometry"/>
                </mxCell>
                <mxCell id="3" value="サンプルフォーム" style="rounded=0;whiteSpace=wrap;html=1;fillColor=#647687;fontColor=#ffffff;strokeColor=#314354;fontSize=14;fontStyle=1" vertex="1" parent="1">
                    <mxGeometry x="80" y="40" width="240" height="50" as="geometry"/>
                </mxCell>
                <mxCell id="4" value="登録する" style="rounded=0;whiteSpace=wrap;html=1;align=center;fillColor=#dae8fc;strokeColor=#6c8ebf;fontStyle=1" vertex="1" parent="1">
                    <mxGeometry x="80" y="520" width="240" height="40" as="geometry"/>
                </mxCell>
                <mxCell id="5" value="プロフィール登録" style="text;html=1;strokeColor=none;fillColor=none;align=center;verticalAlign=middle;whiteSpace=wrap;rounded=0;fontSize=17;fontStyle=1" vertex="1" parent="1">
                    <mxGeometry x="100" y="100" width="200" height="30" as="geometry"/>
                </mxCell>
                <mxCell id="7" value="&amp;nbsp;175" style="rounded=0;whiteSpace=wrap;html=1;align=left;" vertex="1" parent="1">
                    <mxGeometry x="168" y="300" width="42" height="30" as="geometry"/>
                </mxCell>
                <mxCell id="8" value="郵便番号" style="text;html=1;strokeColor=none;fillColor=none;align=left;verticalAlign=middle;whiteSpace=wrap;rounded=0;fontSize=12;" vertex="1" parent="1">
                    <mxGeometry x="102" y="300" width="60" height="30" as="geometry"/>
                </mxCell>
                <mxCell id="9" value="&amp;nbsp;男性" style="rounded=0;whiteSpace=wrap;html=1;align=left;" vertex="1" parent="1">
                    <mxGeometry x="168" y="260" width="130" height="30" as="geometry"/>
                </mxCell>
                <mxCell id="10" value="性別" style="text;html=1;strokeColor=none;fillColor=none;align=left;verticalAlign=middle;whiteSpace=wrap;rounded=0;fontSize=12;" vertex="1" parent="1">
                    <mxGeometry x="102" y="260" width="60" height="30" as="geometry"/>
                </mxCell>
                <mxCell id="11" value="&amp;nbsp;email@example.com" style="rounded=0;whiteSpace=wrap;html=1;align=left;" vertex="1" parent="1">
                    <mxGeometry x="168" y="220" width="130" height="30" as="geometry"/>
                </mxCell>
                <mxCell id="12" value="Email" style="text;html=1;strokeColor=none;fillColor=none;align=left;verticalAlign=middle;whiteSpace=wrap;rounded=0;fontSize=12;" vertex="1" parent="1">
                    <mxGeometry x="102" y="220" width="60" height="30" as="geometry"/>
                </mxCell>
                <mxCell id="13" value="&amp;nbsp;090-1234-1234" style="rounded=0;whiteSpace=wrap;html=1;align=left;" vertex="1" parent="1">
                    <mxGeometry x="168" y="180" width="130" height="30" as="geometry"/>
                </mxCell>
                <mxCell id="14" value="電話番号" style="text;html=1;strokeColor=none;fillColor=none;align=left;verticalAlign=middle;whiteSpace=wrap;rounded=0;fontSize=12;" vertex="1" parent="1">
                    <mxGeometry x="102" y="180" width="60" height="30" as="geometry"/>
                </mxCell>
                <mxCell id="15" value="テスト太郎" style="rounded=0;whiteSpace=wrap;html=1;align=left;" vertex="1" parent="1">
                    <mxGeometry x="168" y="140" width="130" height="30" as="geometry"/>
                </mxCell>
                <mxCell id="16" value="名前" style="text;html=1;strokeColor=none;fillColor=none;align=left;verticalAlign=middle;whiteSpace=wrap;rounded=0;fontSize=12;" vertex="1" parent="1">
                    <mxGeometry x="102" y="140" width="60" height="30" as="geometry"/>
                </mxCell>
                <mxCell id="17" value="&amp;nbsp;三園2-16" style="rounded=0;whiteSpace=wrap;html=1;align=left;" vertex="1" parent="1">
                    <mxGeometry x="168" y="420" width="130" height="30" as="geometry"/>
                </mxCell>
                <mxCell id="18" value="番地" style="text;html=1;strokeColor=none;fillColor=none;align=left;verticalAlign=middle;whiteSpace=wrap;rounded=0;fontSize=12;" vertex="1" parent="1">
                    <mxGeometry x="102" y="420" width="60" height="30" as="geometry"/>
                </mxCell>
                <mxCell id="19" value="&amp;nbsp;板橋区" style="rounded=0;whiteSpace=wrap;html=1;align=left;" vertex="1" parent="1">
                    <mxGeometry x="168" y="380" width="130" height="30" as="geometry"/>
                </mxCell>
                <mxCell id="20" value="市区町村" style="text;html=1;strokeColor=none;fillColor=none;align=left;verticalAlign=middle;whiteSpace=wrap;rounded=0;fontSize=12;" vertex="1" parent="1">
                    <mxGeometry x="102" y="380" width="60" height="30" as="geometry"/>
                </mxCell>
                <mxCell id="21" value="&amp;nbsp;東京都" style="rounded=0;whiteSpace=wrap;html=1;align=left;" vertex="1" parent="1">
                    <mxGeometry x="168" y="340" width="130" height="30" as="geometry"/>
                </mxCell>
                <mxCell id="22" value="都道府県" style="text;html=1;strokeColor=none;fillColor=none;align=left;verticalAlign=middle;whiteSpace=wrap;rounded=0;fontSize=12;" vertex="1" parent="1">
                    <mxGeometry x="102" y="340" width="60" height="30" as="geometry"/>
                </mxCell>
                <mxCell id="23" value="" style="triangle;whiteSpace=wrap;html=1;fontSize=12;rotation=90;fillColor=#647687;fontColor=#ffffff;strokeColor=none;" vertex="1" parent="1">
                    <mxGeometry x="279.69" y="269.69" width="10" height="10.63" as="geometry"/>
                </mxCell>
                <mxCell id="24" value="0091" style="rounded=0;whiteSpace=wrap;html=1;align=left;" vertex="1" parent="1">
                    <mxGeometry x="230" y="300" width="68" height="30" as="geometry"/>
                </mxCell>
                <mxCell id="25" value="-" style="rounded=0;whiteSpace=wrap;html=1;align=left;fillColor=none;strokeColor=none;" vertex="1" parent="1">
                    <mxGeometry x="214" y="300" width="16" height="30" as="geometry"/>
                </mxCell>
                <mxCell id="27" value="&lt;font style=&quot;font-size: 12px;&quot;&gt;メール配信を希望しますか？&lt;/font&gt;" style="strokeWidth=1;shadow=0;dashed=0;align=center;html=1;shape=mxgraph.mockup.forms.rrect;rSize=0;fillColor=#eeeeee;strokeColor=#999999;gradientColor=#cccccc;align=left;spacingLeft=4;fontSize=17;fontColor=#666666;labelPosition=right;" vertex="1" parent="1">
                    <mxGeometry x="110" y="480" width="15" height="15" as="geometry"/>
                </mxCell>
            </root>
        </mxGraphModel>
    </diagram>
</mxfile>